<?xml version="1.0" encoding="utf-8" standalone="no"?>
<!DOCTYPE svg PUBLIC "-//W3C//DTD SVG 1.1//EN"
  "http://www.w3.org/Graphics/SVG/1.1/DTD/svg11.dtd">
<!-- Created with matplotlib (https://matplotlib.org/) -->
<svg height="345.6pt" version="1.1" viewBox="0 0 460.8 345.6" width="460.8pt" xmlns="http://www.w3.org/2000/svg" xmlns:xlink="http://www.w3.org/1999/xlink">
 <metadata>
  <rdf:RDF xmlns:cc="http://creativecommons.org/ns#" xmlns:dc="http://purl.org/dc/elements/1.1/" xmlns:rdf="http://www.w3.org/1999/02/22-rdf-syntax-ns#">
   <cc:Work>
    <dc:type rdf:resource="http://purl.org/dc/dcmitype/StillImage"/>
    <dc:date>2021-06-30T19:33:42.157390</dc:date>
    <dc:format>image/svg+xml</dc:format>
    <dc:creator>
     <cc:Agent>
      <dc:title>Matplotlib v3.3.2, https://matplotlib.org/</dc:title>
     </cc:Agent>
    </dc:creator>
   </cc:Work>
  </rdf:RDF>
 </metadata>
 <defs>
  <style type="text/css">*{stroke-linecap:butt;stroke-linejoin:round;}</style>
 </defs>
 <g id="figure_1">
  <g id="patch_1">
   <path d="M 0 345.6 
L 460.8 345.6 
L 460.8 0 
L 0 0 
z
" style="fill:none;"/>
  </g>
  <g id="axes_1">
   <g id="patch_2">
    <path d="M 57.6 307.584 
L 414.72 307.584 
L 414.72 41.472 
L 57.6 41.472 
z
" style="fill:none;"/>
   </g>
   <g id="matplotlib.axis_1">
    <g id="xtick_1">
     <g id="line2d_1">
      <defs>
       <path d="M 0 0 
L 0 3.5 
" id="m102518670d" style="stroke:#000000;stroke-width:0.8;"/>
      </defs>
      <g>
       <use style="stroke:#000000;stroke-width:0.8;" x="74.013707" xlink:href="#m102518670d" y="307.584"/>
      </g>
     </g>
     <g id="text_1">
      <!-- −0.3 -->
      <g transform="translate(61.872301 322.182437)scale(0.1 -0.1)">
       <defs>
        <path d="M 10.59375 35.5 
L 73.1875 35.5 
L 73.1875 27.203125 
L 10.59375 27.203125 
z
" id="DejaVuSans-8722"/>
        <path d="M 31.78125 66.40625 
Q 24.171875 66.40625 20.328125 58.90625 
Q 16.5 51.421875 16.5 36.375 
Q 16.5 21.390625 20.328125 13.890625 
Q 24.171875 6.390625 31.78125 6.390625 
Q 39.453125 6.390625 43.28125 13.890625 
Q 47.125 21.390625 47.125 36.375 
Q 47.125 51.421875 43.28125 58.90625 
Q 39.453125 66.40625 31.78125 66.40625 
z
M 31.78125 74.21875 
Q 44.046875 74.21875 50.515625 64.515625 
Q 56.984375 54.828125 56.984375 36.375 
Q 56.984375 17.96875 50.515625 8.265625 
Q 44.046875 -1.421875 31.78125 -1.421875 
Q 19.53125 -1.421875 13.0625 8.265625 
Q 6.59375 17.96875 6.59375 36.375 
Q 6.59375 54.828125 13.0625 64.515625 
Q 19.53125 74.21875 31.78125 74.21875 
z
" id="DejaVuSans-48"/>
        <path d="M 10.6875 12.40625 
L 21 12.40625 
L 21 0 
L 10.6875 0 
z
" id="DejaVuSans-46"/>
        <path d="M 40.578125 39.3125 
Q 47.65625 37.796875 51.625 33 
Q 55.609375 28.21875 55.609375 21.1875 
Q 55.609375 10.40625 48.1875 4.484375 
Q 40.765625 -1.421875 27.09375 -1.421875 
Q 22.515625 -1.421875 17.65625 -0.515625 
Q 12.796875 0.390625 7.625 2.203125 
L 7.625 11.71875 
Q 11.71875 9.328125 16.59375 8.109375 
Q 21.484375 6.890625 26.8125 6.890625 
Q 36.078125 6.890625 40.9375 10.546875 
Q 45.796875 14.203125 45.796875 21.1875 
Q 45.796875 27.640625 41.28125 31.265625 
Q 36.765625 34.90625 28.71875 34.90625 
L 20.21875 34.90625 
L 20.21875 43.015625 
L 29.109375 43.015625 
Q 36.375 43.015625 40.234375 45.921875 
Q 44.09375 48.828125 44.09375 54.296875 
Q 44.09375 59.90625 40.109375 62.90625 
Q 36.140625 65.921875 28.71875 65.921875 
Q 24.65625 65.921875 20.015625 65.03125 
Q 15.375 64.15625 9.8125 62.3125 
L 9.8125 71.09375 
Q 15.4375 72.65625 20.34375 73.4375 
Q 25.25 74.21875 29.59375 74.21875 
Q 40.828125 74.21875 47.359375 69.109375 
Q 53.90625 64.015625 53.90625 55.328125 
Q 53.90625 49.265625 50.4375 45.09375 
Q 46.96875 40.921875 40.578125 39.3125 
z
" id="DejaVuSans-51"/>
       </defs>
       <use xlink:href="#DejaVuSans-8722"/>
       <use x="83.789062" xlink:href="#DejaVuSans-48"/>
       <use x="147.412109" xlink:href="#DejaVuSans-46"/>
       <use x="179.199219" xlink:href="#DejaVuSans-51"/>
      </g>
     </g>
    </g>
    <g id="xtick_2">
     <g id="line2d_2">
      <g>
       <use style="stroke:#000000;stroke-width:0.8;" x="121.514948" xlink:href="#m102518670d" y="307.584"/>
      </g>
     </g>
     <g id="text_2">
      <!-- −0.2 -->
      <g transform="translate(109.373542 322.182437)scale(0.1 -0.1)">
       <defs>
        <path d="M 19.1875 8.296875 
L 53.609375 8.296875 
L 53.609375 0 
L 7.328125 0 
L 7.328125 8.296875 
Q 12.9375 14.109375 22.625 23.890625 
Q 32.328125 33.6875 34.8125 36.53125 
Q 39.546875 41.84375 41.421875 45.53125 
Q 43.3125 49.21875 43.3125 52.78125 
Q 43.3125 58.59375 39.234375 62.25 
Q 35.15625 65.921875 28.609375 65.921875 
Q 23.96875 65.921875 18.8125 64.3125 
Q 13.671875 62.703125 7.8125 59.421875 
L 7.8125 69.390625 
Q 13.765625 71.78125 18.9375 73 
Q 24.125 74.21875 28.421875 74.21875 
Q 39.75 74.21875 46.484375 68.546875 
Q 53.21875 62.890625 53.21875 53.421875 
Q 53.21875 48.921875 51.53125 44.890625 
Q 49.859375 40.875 45.40625 35.40625 
Q 44.1875 33.984375 37.640625 27.21875 
Q 31.109375 20.453125 19.1875 8.296875 
z
" id="DejaVuSans-50"/>
       </defs>
       <use xlink:href="#DejaVuSans-8722"/>
       <use x="83.789062" xlink:href="#DejaVuSans-48"/>
       <use x="147.412109" xlink:href="#DejaVuSans-46"/>
       <use x="179.199219" xlink:href="#DejaVuSans-50"/>
      </g>
     </g>
    </g>
    <g id="xtick_3">
     <g id="line2d_3">
      <g>
       <use style="stroke:#000000;stroke-width:0.8;" x="169.016189" xlink:href="#m102518670d" y="307.584"/>
      </g>
     </g>
     <g id="text_3">
      <!-- −0.1 -->
      <g transform="translate(156.874783 322.182437)scale(0.1 -0.1)">
       <defs>
        <path d="M 12.40625 8.296875 
L 28.515625 8.296875 
L 28.515625 63.921875 
L 10.984375 60.40625 
L 10.984375 69.390625 
L 28.421875 72.90625 
L 38.28125 72.90625 
L 38.28125 8.296875 
L 54.390625 8.296875 
L 54.390625 0 
L 12.40625 0 
z
" id="DejaVuSans-49"/>
       </defs>
       <use xlink:href="#DejaVuSans-8722"/>
       <use x="83.789062" xlink:href="#DejaVuSans-48"/>
       <use x="147.412109" xlink:href="#DejaVuSans-46"/>
       <use x="179.199219" xlink:href="#DejaVuSans-49"/>
      </g>
     </g>
    </g>
    <g id="xtick_4">
     <g id="line2d_4">
      <g>
       <use style="stroke:#000000;stroke-width:0.8;" x="216.51743" xlink:href="#m102518670d" y="307.584"/>
      </g>
     </g>
     <g id="text_4">
      <!-- 0.0 -->
      <g transform="translate(208.565868 322.182437)scale(0.1 -0.1)">
       <use xlink:href="#DejaVuSans-48"/>
       <use x="63.623047" xlink:href="#DejaVuSans-46"/>
       <use x="95.410156" xlink:href="#DejaVuSans-48"/>
      </g>
     </g>
    </g>
    <g id="xtick_5">
     <g id="line2d_5">
      <g>
       <use style="stroke:#000000;stroke-width:0.8;" x="264.018671" xlink:href="#m102518670d" y="307.584"/>
      </g>
     </g>
     <g id="text_5">
      <!-- 0.1 -->
      <g transform="translate(256.067109 322.182437)scale(0.1 -0.1)">
       <use xlink:href="#DejaVuSans-48"/>
       <use x="63.623047" xlink:href="#DejaVuSans-46"/>
       <use x="95.410156" xlink:href="#DejaVuSans-49"/>
      </g>
     </g>
    </g>
    <g id="xtick_6">
     <g id="line2d_6">
      <g>
       <use style="stroke:#000000;stroke-width:0.8;" x="311.519912" xlink:href="#m102518670d" y="307.584"/>
      </g>
     </g>
     <g id="text_6">
      <!-- 0.2 -->
      <g transform="translate(303.56835 322.182437)scale(0.1 -0.1)">
       <use xlink:href="#DejaVuSans-48"/>
       <use x="63.623047" xlink:href="#DejaVuSans-46"/>
       <use x="95.410156" xlink:href="#DejaVuSans-50"/>
      </g>
     </g>
    </g>
    <g id="xtick_7">
     <g id="line2d_7">
      <g>
       <use style="stroke:#000000;stroke-width:0.8;" x="359.021153" xlink:href="#m102518670d" y="307.584"/>
      </g>
     </g>
     <g id="text_7">
      <!-- 0.3 -->
      <g transform="translate(351.069591 322.182437)scale(0.1 -0.1)">
       <use xlink:href="#DejaVuSans-48"/>
       <use x="63.623047" xlink:href="#DejaVuSans-46"/>
       <use x="95.410156" xlink:href="#DejaVuSans-51"/>
      </g>
     </g>
    </g>
    <g id="xtick_8">
     <g id="line2d_8">
      <g>
       <use style="stroke:#000000;stroke-width:0.8;" x="406.522394" xlink:href="#m102518670d" y="307.584"/>
      </g>
     </g>
     <g id="text_8">
      <!-- 0.4 -->
      <g transform="translate(398.570832 322.182437)scale(0.1 -0.1)">
       <defs>
        <path d="M 37.796875 64.3125 
L 12.890625 25.390625 
L 37.796875 25.390625 
z
M 35.203125 72.90625 
L 47.609375 72.90625 
L 47.609375 25.390625 
L 58.015625 25.390625 
L 58.015625 17.1875 
L 47.609375 17.1875 
L 47.609375 0 
L 37.796875 0 
L 37.796875 17.1875 
L 4.890625 17.1875 
L 4.890625 26.703125 
z
" id="DejaVuSans-52"/>
       </defs>
       <use xlink:href="#DejaVuSans-48"/>
       <use x="63.623047" xlink:href="#DejaVuSans-46"/>
       <use x="95.410156" xlink:href="#DejaVuSans-52"/>
      </g>
     </g>
    </g>
    <g id="text_9">
     <!-- Theta -->
     <g transform="translate(221.836562 335.860562)scale(0.1 -0.1)">
      <defs>
       <path d="M -0.296875 72.90625 
L 61.375 72.90625 
L 61.375 64.59375 
L 35.5 64.59375 
L 35.5 0 
L 25.59375 0 
L 25.59375 64.59375 
L -0.296875 64.59375 
z
" id="DejaVuSans-84"/>
       <path d="M 54.890625 33.015625 
L 54.890625 0 
L 45.90625 0 
L 45.90625 32.71875 
Q 45.90625 40.484375 42.875 44.328125 
Q 39.84375 48.1875 33.796875 48.1875 
Q 26.515625 48.1875 22.3125 43.546875 
Q 18.109375 38.921875 18.109375 30.90625 
L 18.109375 0 
L 9.078125 0 
L 9.078125 75.984375 
L 18.109375 75.984375 
L 18.109375 46.1875 
Q 21.34375 51.125 25.703125 53.5625 
Q 30.078125 56 35.796875 56 
Q 45.21875 56 50.046875 50.171875 
Q 54.890625 44.34375 54.890625 33.015625 
z
" id="DejaVuSans-104"/>
       <path d="M 56.203125 29.59375 
L 56.203125 25.203125 
L 14.890625 25.203125 
Q 15.484375 15.921875 20.484375 11.0625 
Q 25.484375 6.203125 34.421875 6.203125 
Q 39.59375 6.203125 44.453125 7.46875 
Q 49.3125 8.734375 54.109375 11.28125 
L 54.109375 2.78125 
Q 49.265625 0.734375 44.1875 -0.34375 
Q 39.109375 -1.421875 33.890625 -1.421875 
Q 20.796875 -1.421875 13.15625 6.1875 
Q 5.515625 13.8125 5.515625 26.8125 
Q 5.515625 40.234375 12.765625 48.109375 
Q 20.015625 56 32.328125 56 
Q 43.359375 56 49.78125 48.890625 
Q 56.203125 41.796875 56.203125 29.59375 
z
M 47.21875 32.234375 
Q 47.125 39.59375 43.09375 43.984375 
Q 39.0625 48.390625 32.421875 48.390625 
Q 24.90625 48.390625 20.390625 44.140625 
Q 15.875 39.890625 15.1875 32.171875 
z
" id="DejaVuSans-101"/>
       <path d="M 18.3125 70.21875 
L 18.3125 54.6875 
L 36.8125 54.6875 
L 36.8125 47.703125 
L 18.3125 47.703125 
L 18.3125 18.015625 
Q 18.3125 11.328125 20.140625 9.421875 
Q 21.96875 7.515625 27.59375 7.515625 
L 36.8125 7.515625 
L 36.8125 0 
L 27.59375 0 
Q 17.1875 0 13.234375 3.875 
Q 9.28125 7.765625 9.28125 18.015625 
L 9.28125 47.703125 
L 2.6875 47.703125 
L 2.6875 54.6875 
L 9.28125 54.6875 
L 9.28125 70.21875 
z
" id="DejaVuSans-116"/>
       <path d="M 34.28125 27.484375 
Q 23.390625 27.484375 19.1875 25 
Q 14.984375 22.515625 14.984375 16.5 
Q 14.984375 11.71875 18.140625 8.90625 
Q 21.296875 6.109375 26.703125 6.109375 
Q 34.1875 6.109375 38.703125 11.40625 
Q 43.21875 16.703125 43.21875 25.484375 
L 43.21875 27.484375 
z
M 52.203125 31.203125 
L 52.203125 0 
L 43.21875 0 
L 43.21875 8.296875 
Q 40.140625 3.328125 35.546875 0.953125 
Q 30.953125 -1.421875 24.3125 -1.421875 
Q 15.921875 -1.421875 10.953125 3.296875 
Q 6 8.015625 6 15.921875 
Q 6 25.140625 12.171875 29.828125 
Q 18.359375 34.515625 30.609375 34.515625 
L 43.21875 34.515625 
L 43.21875 35.40625 
Q 43.21875 41.609375 39.140625 45 
Q 35.0625 48.390625 27.6875 48.390625 
Q 23 48.390625 18.546875 47.265625 
Q 14.109375 46.140625 10.015625 43.890625 
L 10.015625 52.203125 
Q 14.9375 54.109375 19.578125 55.046875 
Q 24.21875 56 28.609375 56 
Q 40.484375 56 46.34375 49.84375 
Q 52.203125 43.703125 52.203125 31.203125 
z
" id="DejaVuSans-97"/>
      </defs>
      <use xlink:href="#DejaVuSans-84"/>
      <use x="61.083984" xlink:href="#DejaVuSans-104"/>
      <use x="124.462891" xlink:href="#DejaVuSans-101"/>
      <use x="185.986328" xlink:href="#DejaVuSans-116"/>
      <use x="225.195312" xlink:href="#DejaVuSans-97"/>
     </g>
    </g>
   </g>
   <g id="matplotlib.axis_2">
    <g id="ytick_1">
     <g id="line2d_9">
      <defs>
       <path d="M 0 0 
L -3.5 0 
" id="m2d44377858" style="stroke:#000000;stroke-width:0.8;"/>
      </defs>
      <g>
       <use style="stroke:#000000;stroke-width:0.8;" x="57.6" xlink:href="#m2d44377858" y="302.646801"/>
      </g>
     </g>
     <g id="text_10">
      <!-- 0 -->
      <g transform="translate(44.2375 306.44602)scale(0.1 -0.1)">
       <use xlink:href="#DejaVuSans-48"/>
      </g>
     </g>
    </g>
    <g id="ytick_2">
     <g id="line2d_10">
      <g>
       <use style="stroke:#000000;stroke-width:0.8;" x="57.6" xlink:href="#m2d44377858" y="246.495124"/>
      </g>
     </g>
     <g id="text_11">
      <!-- 5 -->
      <g transform="translate(44.2375 250.294343)scale(0.1 -0.1)">
       <defs>
        <path d="M 10.796875 72.90625 
L 49.515625 72.90625 
L 49.515625 64.59375 
L 19.828125 64.59375 
L 19.828125 46.734375 
Q 21.96875 47.46875 24.109375 47.828125 
Q 26.265625 48.1875 28.421875 48.1875 
Q 40.625 48.1875 47.75 41.5 
Q 54.890625 34.8125 54.890625 23.390625 
Q 54.890625 11.625 47.5625 5.09375 
Q 40.234375 -1.421875 26.90625 -1.421875 
Q 22.3125 -1.421875 17.546875 -0.640625 
Q 12.796875 0.140625 7.71875 1.703125 
L 7.71875 11.625 
Q 12.109375 9.234375 16.796875 8.0625 
Q 21.484375 6.890625 26.703125 6.890625 
Q 35.15625 6.890625 40.078125 11.328125 
Q 45.015625 15.765625 45.015625 23.390625 
Q 45.015625 31 40.078125 35.4375 
Q 35.15625 39.890625 26.703125 39.890625 
Q 22.75 39.890625 18.8125 39.015625 
Q 14.890625 38.140625 10.796875 36.28125 
z
" id="DejaVuSans-53"/>
       </defs>
       <use xlink:href="#DejaVuSans-53"/>
      </g>
     </g>
    </g>
    <g id="ytick_3">
     <g id="line2d_11">
      <g>
       <use style="stroke:#000000;stroke-width:0.8;" x="57.6" xlink:href="#m2d44377858" y="190.343447"/>
      </g>
     </g>
     <g id="text_12">
      <!-- 10 -->
      <g transform="translate(37.875 194.142666)scale(0.1 -0.1)">
       <use xlink:href="#DejaVuSans-49"/>
       <use x="63.623047" xlink:href="#DejaVuSans-48"/>
      </g>
     </g>
    </g>
    <g id="ytick_4">
     <g id="line2d_12">
      <g>
       <use style="stroke:#000000;stroke-width:0.8;" x="57.6" xlink:href="#m2d44377858" y="134.191771"/>
      </g>
     </g>
     <g id="text_13">
      <!-- 15 -->
      <g transform="translate(37.875 137.990989)scale(0.1 -0.1)">
       <use xlink:href="#DejaVuSans-49"/>
       <use x="63.623047" xlink:href="#DejaVuSans-53"/>
      </g>
     </g>
    </g>
    <g id="ytick_5">
     <g id="line2d_13">
      <g>
       <use style="stroke:#000000;stroke-width:0.8;" x="57.6" xlink:href="#m2d44377858" y="78.040094"/>
      </g>
     </g>
     <g id="text_14">
      <!-- 20 -->
      <g transform="translate(37.875 81.839313)scale(0.1 -0.1)">
       <use xlink:href="#DejaVuSans-50"/>
       <use x="63.623047" xlink:href="#DejaVuSans-48"/>
      </g>
     </g>
    </g>
    <g id="text_15">
     <!-- Time -->
     <g transform="translate(31.795313 186.761594)rotate(-90)scale(0.1 -0.1)">
      <defs>
       <path d="M 9.421875 54.6875 
L 18.40625 54.6875 
L 18.40625 0 
L 9.421875 0 
z
M 9.421875 75.984375 
L 18.40625 75.984375 
L 18.40625 64.59375 
L 9.421875 64.59375 
z
" id="DejaVuSans-105"/>
       <path d="M 52 44.1875 
Q 55.375 50.25 60.0625 53.125 
Q 64.75 56 71.09375 56 
Q 79.640625 56 84.28125 50.015625 
Q 88.921875 44.046875 88.921875 33.015625 
L 88.921875 0 
L 79.890625 0 
L 79.890625 32.71875 
Q 79.890625 40.578125 77.09375 44.375 
Q 74.3125 48.1875 68.609375 48.1875 
Q 61.625 48.1875 57.5625 43.546875 
Q 53.515625 38.921875 53.515625 30.90625 
L 53.515625 0 
L 44.484375 0 
L 44.484375 32.71875 
Q 44.484375 40.625 41.703125 44.40625 
Q 38.921875 48.1875 33.109375 48.1875 
Q 26.21875 48.1875 22.15625 43.53125 
Q 18.109375 38.875 18.109375 30.90625 
L 18.109375 0 
L 9.078125 0 
L 9.078125 54.6875 
L 18.109375 54.6875 
L 18.109375 46.1875 
Q 21.1875 51.21875 25.484375 53.609375 
Q 29.78125 56 35.6875 56 
Q 41.65625 56 45.828125 52.96875 
Q 50 49.953125 52 44.1875 
z
" id="DejaVuSans-109"/>
      </defs>
      <use xlink:href="#DejaVuSans-84"/>
      <use x="57.958984" xlink:href="#DejaVuSans-105"/>
      <use x="85.742188" xlink:href="#DejaVuSans-109"/>
      <use x="183.154297" xlink:href="#DejaVuSans-101"/>
     </g>
    </g>
   </g>
   <g id="line2d_14">
    <path clip-path="url(#p3ca282c284)" d="M 277.436544 295.488 
L 335.757425 294.600461 
L 262.183959 294.351963 
L 335.925003 294.148418 
L 261.608945 293.93036 
L 333.874466 293.632518 
L 369.563956 293.272001 
L 304.306054 292.864571 
L 287.692675 292.50812 
L 283.492832 292.149456 
L 283.388809 291.742465 
L 302.83244 291.385918 
L 290.183652 291.025299 
L 294.053066 290.623502 
L 289.684615 290.263325 
L 288.552384 289.903514 
L 276.95857 289.493618 
L 290.785954 289.135716 
L 291.301047 288.781392 
L 275.278842 288.017924 
L 225.111571 287.651401 
L 288.596389 287.251015 
L 221.58068 286.893536 
L 291.201753 286.53375 
L 290.532362 286.128181 
L 222.110578 285.770084 
L 296.102288 285.408723 
L 222.110578 285.001445 
L 219.63693 284.639107 
L 273.197252 284.288298 
L 276.790971 283.880616 
L 218.491236 283.524412 
L 221.58068 283.160368 
L 284.872243 282.75923 
L 219.106603 282.400871 
L 289.068038 282.038648 
L 221.757323 281.635727 
L 293.467055 281.276039 
L 289.755377 280.919637 
L 289.927176 280.515109 
L 279.07619 280.157162 
L 223.170096 279.79733 
L 290.957666 279.390904 
L 288.380471 279.033699 
L 287.692675 278.673109 
L 222.110578 278.268316 
L 281.492326 277.910393 
L 228.109527 277.551413 
L 291.397571 277.143795 
L 220.697311 276.788266 
L 221.050689 276.428383 
L 289.411736 276.022398 
L 223.983126 275.664749 
L 338.938536 275.300277 
L 264.697461 274.135721 
L 205.464536 273.013213 
L 136.001635 271.532266 
L 122.863827 271.172678 
L 227.404402 270.766075 
L 230.576111 270.402079 
L 97.174523 270.046965 
L 99.344864 269.636142 
L 105.131087 269.277451 
L 118.140999 268.92054 
L 137.660046 268.517255 
L 188.023393 266.674711 
L 198.586549 265.911411 
L 206.539752 265.555081 
L 207.129869 265.14955 
L 213.05838 264.387798 
L 215.391774 264.025028 
L 218.805771 263.263102 
L 219.460165 262.90364 
L 219.595825 262.542049 
L 218.576184 262.141759 
L 209.934659 261.020639 
L 198.889444 260.300841 
L 185.922219 259.538246 
L 156.693051 258.053279 
L 143.746379 257.291329 
L 121.752134 256.160604 
L 106.577299 255.394335 
L 99.525714 255.037949 
L 92.109491 254.323857 
L 92.109491 253.916957 
L 94.642153 253.55773 
L 105.131087 252.796053 
L 123.91816 251.675781 
L 143.124319 250.55039 
L 148.01871 250.189147 
L 151.228185 249.831762 
L 153.818502 249.424501 
L 155.248386 249.065579 
L 155.369833 248.711038 
L 153.638793 247.945328 
L 144.876753 246.055984 
L 144.300141 245.695884 
L 142.306168 244.933324 
L 140.325366 244.57437 
L 133.658528 243.810848 
L 87.507196 241.199993 
L 82.647643 240.847435 
L 80.129679 240.441711 
L 79.663674 240.08152 
L 82.388773 239.317508 
L 92.290404 238.603772 
L 146.086034 235.951345 
L 150.403076 235.590654 
L 153.818502 235.189982 
L 154.973198 234.827475 
L 154.88389 234.465822 
L 153.55457 234.065616 
L 151.422135 233.701928 
L 144.472362 232.940128 
L 130.781568 231.814351 
L 116.515565 230.694296 
L 111.924639 229.9729 
L 110.553583 229.573258 
L 109.830714 229.201236 
L 109.907557 228.444183 
L 112.36057 228.090198 
L 115.849935 227.723335 
L 120.872082 227.321817 
L 141.65681 226.19793 
L 210.233472 222.835069 
L 219.624243 222.473229 
L 225.817248 222.112331 
L 234.975412 221.712508 
L 260.546567 220.989486 
L 284.542366 219.864172 
L 288.530812 219.458938 
L 289.265466 219.10573 
L 291.037543 218.73809 
L 290.475087 218.342326 
L 285.627921 217.618474 
L 285.298247 217.218916 
L 276.441786 216.495779 
L 271.118607 216.088258 
L 264.697461 215.734359 
L 246.730752 214.973633 
L 233.443043 214.613024 
L 232.160618 214.251888 
L 212.878336 213.483652 
L 207.226629 213.12303 
L 183.726309 212.367409 
L 169.25069 212.000766 
L 113.625297 210.884636 
L 102.057417 210.47599 
L 98.259725 210.118546 
L 107.570435 209.756072 
L 112.093581 209.352738 
L 150.080307 208.630648 
L 174.264658 208.234868 
L 201.28961 207.511054 
L 220.08826 206.75184 
L 224.224413 206.387462 
L 225.404217 205.981616 
L 224.609799 205.59845 
L 222.123115 205.237335 
L 220.381103 204.866748 
L 206.131697 203.742492 
L 197.110298 203.376161 
L 191.379889 203.019989 
L 173.9067 202.253659 
L 172.050835 201.896376 
L 145.0063 200.772299 
L 132.396552 200.011731 
L 97.174523 198.124574 
L 91.357887 197.74914 
L 88.015186 197.402559 
L 87.314848 196.998958 
L 88.310026 196.633634 
L 102.961501 195.876613 
L 128.248631 195.11952 
L 150.552036 194.393904 
L 150.18392 193.989371 
L 160.463586 193.636075 
L 180.345495 192.509631 
L 181.596363 192.141427 
L 181.481084 191.737397 
L 180.570811 191.386441 
L 172.719548 190.627289 
L 159.386564 189.503975 
L 150.582885 189.143717 
L 141.585944 188.379237 
L 137.082816 188.019009 
L 136.90263 187.657493 
L 116.020839 185.773364 
L 117.238011 185.413682 
L 121.210549 185.012009 
L 128.51603 184.647041 
L 154.716958 183.883841 
L 192.480482 183.168014 
L 217.868818 182.400387 
L 224.405727 181.637203 
L 220.697311 181.281703 
L 203.866331 180.518824 
L 221.404027 180.151736 
L 221.227363 179.794022 
L 221.227363 179.390053 
L 221.404027 179.028888 
L 221.227363 178.674823 
L 221.933956 177.912456 
L 221.599182 177.552581 
L 221.404027 177.149502 
L 158.488877 176.788518 
L 221.227363 176.421007 
L 222.110578 176.02343 
L 153.801386 175.663724 
L 157.770619 175.30658 
L 160.358659 174.89708 
L 165.716215 174.542973 
L 190.897869 173.41945 
L 200.450651 173.059715 
L 204.576736 172.655281 
L 205.109444 172.297151 
L 214.329589 171.931831 
L 215.568771 171.531996 
L 215.568771 171.173613 
L 213.444165 170.812726 
L 210.254626 170.410511 
L 205.93523 170.036411 
L 188.768026 168.928686 
L 181.011417 168.162824 
L 152.789499 167.039028 
L 151.167266 166.675343 
L 122.654707 165.552006 
L 109.64999 164.435809 
L 114.58687 163.673008 
L 130.861394 162.950248 
L 158.016265 161.828868 
L 164.200074 161.425727 
L 171.953053 161.063185 
L 173.021252 160.703268 
L 172.246524 160.302226 
L 170.834768 159.937909 
L 162.845521 159.180722 
L 127.887842 156.924574 
L 126.077234 156.57161 
L 125.722785 156.211837 
L 126.264101 155.808337 
L 129.330903 155.442066 
L 135.821422 155.047809 
L 148.783668 154.680978 
L 167.637913 153.559793 
L 191.6407 152.798228 
L 198.189987 152.436083 
L 254.421917 151.674898 
L 299.866614 151.311232 
L 221.404027 150.955135 
L 220.520606 150.190952 
L 221.050689 149.830711 
L 220.167167 149.433567 
L 220.874005 149.069202 
L 220.697311 148.710682 
L 221.404027 148.306701 
L 73.832727 147.947107 
L 221.58068 147.584838 
L 221.757323 147.182723 
L 221.757323 146.81967 
L 221.404027 146.460944 
L 221.404027 146.057367 
L 222.463792 145.703155 
L 221.227363 145.299556 
L 221.757323 144.940425 
L 221.757323 144.17086 
L 221.933956 143.809971 
L 222.993536 143.457055 
L 221.58068 143.054091 
L 221.227363 142.693694 
L 222.463792 141.93007 
L 222.640384 141.569473 
L 222.463792 141.210302 
L 221.58068 140.798737 
L 223.170096 140.446531 
L 223.170096 140.087992 
L 230.223871 139.324546 
L 221.933956 138.964157 
L 221.58068 138.602201 
L 220.520606 138.200632 
L 221.510328 137.841761 
L 289.068038 137.480834 
L 285.627921 137.063706 
L 287.176678 136.686781 
L 226.522756 136.358565 
L 222.993536 135.955346 
L 221.404027 135.587254 
L 222.816965 135.235101 
L 222.993536 134.832124 
L 220.751558 134.473127 
L 296.835102 134.113199 
L 233.920208 133.704708 
L 280.974811 133.343511 
L 284.606806 132.990153 
L 290.893988 132.586174 
L 287.864645 131.861873 
L 222.816965 131.462579 
L 289.927176 131.104373 
L 222.993536 130.738503 
L 289.755356 130.340532 
L 283.561133 129.97466 
L 258.060729 129.620528 
L 288.724283 129.216613 
L 286.488483 128.858324 
L 290.081304 128.498103 
L 285.124572 128.094189 
L 288.552384 127.73086 
L 221.050689 127.370225 
L 297.531588 126.965068 
L 295.266135 126.610716 
L 279.974805 126.249752 
L 221.933956 125.84698 
L 283.605495 125.488345 
L 280.457171 125.127764 
L 394.605226 124.724569 
L 285.517426 124.359417 
L 221.227363 124.004463 
L 289.248873 123.595269 
L 287.692675 123.242894 
L 290.901848 122.881522 
L 282.857067 122.479401 
L 288.036601 122.118153 
L 222.463792 121.756353 
L 290.377806 121.355523 
L 290.927902 120.996639 
L 218.753 120.631004 
L 285.455766 120.233339 
L 285.455766 119.864789 
L 278.875468 119.514385 
L 286.382697 119.109029 
L 216.924099 118.750223 
L 220.520606 118.3914 
L 288.752883 117.984133 
L 277.297019 117.624133 
L 284.892192 117.261318 
L 284.422541 116.861256 
L 285.455766 116.50328 
L 283.125711 116.099148 
L 288.208543 115.732194 
L 285.972189 115.380898 
L 289.755377 114.976836 
L 221.158718 114.618495 
L 277.694328 114.257108 
L 273.370386 113.852604 
L 283.655345 113.494282 
L 281.626444 113.126431 
L 277.317081 112.725087 
L 278.058202 112.371215 
L 288.380471 112.00549 
L 288.659823 111.608156 
L 291.129364 111.245671 
L 288.208543 110.874205 
L 290.414308 110.482468 
L 398.487273 110.121262 
L 284.07802 109.758999 
L 288.208543 109.358731 
L 282.931659 108.996669 
L 287.176678 108.641739 
L 218.704405 108.239782 
L 225.111571 107.871735 
L 285.972189 107.51777 
L 281.116121 107.108671 
L 281.499295 106.750406 
L 279.594161 106.390009 
L 287.802866 105.993286 
L 273.716612 105.272181 
L 292.101955 104.868979 
L 227.756985 104.508269 
L 286.144301 104.148506 
L 223.699715 103.746549 
L 273.716612 103.383828 
L 222.993536 103.027407 
L 283.433322 102.623939 
L 220.697311 102.263872 
L 223.227133 101.903949 
L 292.330845 101.494695 
L 221.404027 101.135235 
L 286.253356 100.779947 
L 221.688129 100.376303 
L 223.699715 100.010626 
L 226.500345 99.657841 
L 272.047579 99.254368 
L 228.990692 98.890097 
L 221.933956 98.532645 
L 288.896168 98.130165 
L 280.802278 97.765755 
L 281.781268 97.408611 
L 220.167167 97.008191 
L 287.176678 96.645555 
L 290.24905 95.884888 
L 221.757323 95.520019 
L 284.612651 95.11343 
L 290.442486 94.761454 
L 287.90772 94.401188 
L 288.070458 94.042646 
L 298.275967 93.63814 
L 286.488483 93.271713 
L 287.692675 92.919199 
L 280.974811 92.515413 
L 279.939407 92.154175 
L 289.684783 91.789896 
L 225.288006 91.365281 
L 287.176678 91.033116 
L 289.755377 90.67334 
L 284.555464 90.268585 
L 288.456083 89.902 
L 283.870132 89.547943 
L 288.896168 89.145975 
L 222.287191 88.786732 
L 286.389104 88.426167 
L 288.552384 88.017644 
L 286.341293 87.662393 
L 285.800062 87.301608 
L 287.129893 86.900055 
L 289.428244 86.529213 
L 288.036601 86.181125 
L 280.710931 85.775089 
L 285.704874 85.411319 
L 287.692675 85.01424 
L 287.692675 84.654389 
L 280.802278 84.293684 
L 220.997817 83.885587 
L 222.463792 83.524904 
L 284.756305 83.171342 
L 287.348691 82.768124 
L 287.348691 82.407556 
L 289.583564 82.048369 
L 272.504584 81.644773 
L 283.382793 81.279717 
L 290.09896 80.925122 
L 287.692675 80.515577 
L 286.210604 80.107654 
L 286.182474 79.794491 
L 285.972189 79.398488 
L 287.176678 78.990764 
L 284.07802 78.674345 
L 285.643703 78.268438 
L 222.463792 77.914218 
L 296.616026 77.555674 
L 276.922363 77.153104 
L 289.329635 76.792613 
L 288.036601 76.432813 
L 285.059265 76.029586 
L 283.905738 75.669219 
L 288.552384 75.309636 
L 287.52069 74.904492 
L 286.119279 74.546181 
L 289.927176 74.185131 
L 288.896168 73.782595 
L 277.264615 73.422846 
L 282.009716 73.063542 
L 289.266599 72.301222 
L 285.569774 71.940689 
L 288.724283 71.537904 
L 283.733443 71.176878 
L 290.525612 70.817088 
L 282.23734 70.414092 
L 281.837267 70.054225 
L 287.348691 69.693296 
L 288.896168 69.29152 
L 291.816011 68.930585 
L 285.627921 68.570341 
L 284.422541 68.167537 
L 220.520606 67.807175 
L 274.005002 67.447496 
L 218.399357 67.04503 
L 289.068038 66.68531 
L 286.191171 66.281162 
L 292.973094 65.92144 
L 289.755377 65.561362 
L 284.767006 65.159171 
L 285.800062 64.799414 
L 285.793107 64.438977 
L 222.061939 64.030479 
L 284.59478 63.664957 
L 292.165009 63.310014 
L 285.627921 62.912651 
L 291.129364 62.552787 
L 278.989048 62.185951 
L 286.631568 61.776978 
L 287.240933 61.423489 
L 289.068038 61.062621 
L 221.404027 60.666013 
L 287.559972 60.301924 
L 287.864645 59.946561 
L 280.629732 59.543522 
L 289.698835 59.184523 
L 282.908177 58.819344 
L 283.002271 58.414476 
L 222.463792 58.059252 
L 289.239895 57.694292 
L 220.697311 57.290404 
L 289.239895 56.934974 
L 293.017087 56.57156 
L 287.348691 56.170855 
L 287.020191 55.811433 
L 288.724283 55.448273 
L 221.404027 55.050396 
L 289.243041 54.691287 
L 288.12843 54.33093 
L 274.907685 53.927208 
L 286.620751 53.568 
L 286.620751 53.568 
" style="fill:none;stroke:#1f77b4;stroke-linecap:square;stroke-width:1.5;"/>
   </g>
   <g id="patch_3">
    <path d="M 57.6 307.584 
L 57.6 41.472 
" style="fill:none;stroke:#000000;stroke-linecap:square;stroke-linejoin:miter;stroke-width:0.8;"/>
   </g>
   <g id="patch_4">
    <path d="M 414.72 307.584 
L 414.72 41.472 
" style="fill:none;stroke:#000000;stroke-linecap:square;stroke-linejoin:miter;stroke-width:0.8;"/>
   </g>
   <g id="patch_5">
    <path d="M 57.6 307.584 
L 414.72 307.584 
" style="fill:none;stroke:#000000;stroke-linecap:square;stroke-linejoin:miter;stroke-width:0.8;"/>
   </g>
   <g id="patch_6">
    <path d="M 57.6 41.472 
L 414.72 41.472 
" style="fill:none;stroke:#000000;stroke-linecap:square;stroke-linejoin:miter;stroke-width:0.8;"/>
   </g>
  </g>
 </g>
 <defs>
  <clipPath id="p3ca282c284">
   <rect height="266.112" width="357.12" x="57.6" y="41.472"/>
  </clipPath>
 </defs>
</svg>
